<svg width="70" height="55" viewBox="0 0 70 55" fill="none" xmlns="http://www.w3.org/2000/svg">
<path d="M23.712 0.863997V54H10.968V12.564C10.632 12.78 9.948 13.068 8.916 13.428C7.884 13.788 6.66 14.124 5.244 14.436C3.852 14.748 2.424 14.952 0.96 15.048V5.184C2.448 5.04 3.9 4.74 5.316 4.284C6.756 3.804 8.004 3.264 9.06 2.664C10.116 2.04 10.824 1.44 11.184 0.863997H23.712ZM68.2454 10.332H47.1494L45.2054 23.004C45.2774 22.788 45.5294 22.488 45.9614 22.104C46.3934 21.72 46.9934 21.336 47.7614 20.952C48.5294 20.544 49.4774 20.208 50.6054 19.944C51.7574 19.68 53.0774 19.548 54.5654 19.548C59.5094 19.548 63.2774 21.108 65.8694 24.228C68.4614 27.324 69.7574 31.368 69.7574 36.36C69.7574 40.392 69.0374 43.788 67.5974 46.548C66.1574 49.308 64.0214 51.396 61.1894 52.812C58.3574 54.204 54.8174 54.9 50.5694 54.9C47.0894 54.9 44.1494 54.384 41.7494 53.352C39.3734 52.32 37.4534 50.964 35.9894 49.284C34.5254 47.604 33.4694 45.756 32.8214 43.74C32.1734 41.724 31.8494 39.732 31.8494 37.764C31.8494 37.716 31.8494 37.68 31.8494 37.656C31.8494 37.632 31.8494 37.608 31.8494 37.584H44.5574C44.5574 37.608 44.5574 37.632 44.5574 37.656C44.5574 37.68 44.5574 37.716 44.5574 37.764C44.7014 39.972 45.2294 41.76 46.1414 43.128C47.0534 44.472 48.6014 45.144 50.7854 45.144C52.1774 45.144 53.3174 44.832 54.2054 44.208C55.1174 43.584 55.7894 42.648 56.2214 41.4C56.6534 40.128 56.8694 38.544 56.8694 36.648C56.8694 34.104 56.4254 32.1 55.5374 30.636C54.6734 29.172 53.1974 28.44 51.1094 28.44C49.9334 28.44 48.9014 28.668 48.0134 29.124C47.1254 29.556 46.4054 30.096 45.8534 30.744C45.3014 31.392 44.9054 32.052 44.6654 32.724L32.4974 29.556L36.8894 0.899999H68.2454V10.332Z" fill="white"/>
</svg>
